<?xml version="1.0" encoding="UTF-8" standalone="no"?>
<!-- Created with Inkscape (http://www.inkscape.org/) -->

<svg
   version="1.1"
   id="svg1"
   width="585"
   height="1024"
   viewBox="0 0 585 1024"
   sodipodi:docname="arrowRight.svg"
   inkscape:version="1.3.2 (091e20ef0f, 2023-11-25, custom)"
   xmlns:inkscape="http://www.inkscape.org/namespaces/inkscape"
   xmlns:sodipodi="http://sodipodi.sourceforge.net/DTD/sodipodi-0.dtd"
   xmlns="http://www.w3.org/2000/svg"
   xmlns:svg="http://www.w3.org/2000/svg">
  <sodipodi:namedview
     id="namedview1"
     pagecolor="#ffffff"
     bordercolor="#000000"
     borderopacity="0.25"
     inkscape:showpageshadow="2"
     inkscape:pageopacity="0.0"
     inkscape:pagecheckerboard="0"
     inkscape:deskcolor="#d1d1d1"
     showgrid="false"
     inkscape:zoom="0.76953125"
     inkscape:cx="291.73604"
     inkscape:cy="512"
     inkscape:window-width="1900"
     inkscape:window-height="1010"
     inkscape:window-x="10"
     inkscape:window-y="60"
     inkscape:window-maximized="1"
     inkscape:current-layer="svg1" />
  <defs
     id="defs1">
    <filter
       style="color-interpolation-filters:sRGB;"
       inkscape:label="Colorize"
       id="filter2"
       x="0"
       y="0"
       width="1"
       height="1">
      <feComposite
         in2="SourceGraphic"
         operator="arithmetic"
         k1="10"
         k2="10"
         result="composite1"
         id="feComposite1" />
      <feColorMatrix
         in="composite1"
         values="1"
         type="saturate"
         result="colormatrix1"
         id="feColorMatrix1" />
      <feFlood
         flood-opacity="1"
         flood-color="rgb(238,238,238)"
         result="flood1"
         id="feFlood1" />
      <feBlend
         in="flood1"
         in2="colormatrix1"
         mode="normal"
         result="blend1"
         id="feBlend1" />
      <feBlend
         in2="blend1"
         mode="normal"
         result="blend2"
         id="feBlend2" />
      <feColorMatrix
         in="blend2"
         values="1"
         type="saturate"
         result="colormatrix2"
         id="feColorMatrix2" />
      <feComposite
         in="colormatrix2"
         in2="SourceGraphic"
         operator="in"
         k2="1"
         result="composite2"
         id="feComposite2" />
    </filter>
  </defs>
  <g
     id="g1"
     style="filter:url(#filter2)">
    <path
       style="fill:#000000"
       d="m 146.33991,1022.3398 c 0.37023,-0.3702 0.67315,-33.22313 0.67315,-73.00647 V 877 h 72.5 72.5 v -73 -73 h -72.5 -72.5 v 73 73 H 73.50653 0 l 0.25653,72.75 0.25653,72.75 72.57685,0.2565 c 39.91726,0.1411 72.87976,-0.046 73.25,-0.4167 z M 438.01306,658 v -73 h 73.5 73.5 v -73 -73 h -73.5 -73.5 v -73 -73 h -72.5 -72.5 v 73 73 h 72.5 72.5 v 73 73 h -72.5 -72.5 v 73 73 h 72.5 72.5 z m -146,-438 V 147 H 219.51959 147.02612 L 146.76959,74.25 146.51306,1.5 h -73 -73 L 0.25653,74.25 0,147 h 73.50653 73.50653 v 73 73 h 72.5 72.5 z"
       id="path1" />
  </g>
</svg>
