<?xml version="1.0" encoding="UTF-8" standalone="no"?>
<!-- Created with Inkscape (http://www.inkscape.org/) -->

<svg
   version="1.1"
   id="svg1"
   width="1024"
   height="897"
   viewBox="0 0 1024 897"
   sodipodi:docname="next.svg"
   inkscape:version="1.3.2 (091e20ef0f, 2023-11-25, custom)"
   xmlns:inkscape="http://www.inkscape.org/namespaces/inkscape"
   xmlns:sodipodi="http://sodipodi.sourceforge.net/DTD/sodipodi-0.dtd"
   xmlns="http://www.w3.org/2000/svg"
   xmlns:svg="http://www.w3.org/2000/svg">
  <sodipodi:namedview
     id="namedview1"
     pagecolor="#ffffff"
     bordercolor="#000000"
     borderopacity="0.25"
     inkscape:showpageshadow="2"
     inkscape:pageopacity="0.0"
     inkscape:pagecheckerboard="0"
     inkscape:deskcolor="#d1d1d1"
     showgrid="false"
     inkscape:zoom="0.87848384"
     inkscape:cx="512.24619"
     inkscape:cy="448.5"
     inkscape:window-width="1900"
     inkscape:window-height="1010"
     inkscape:window-x="10"
     inkscape:window-y="60"
     inkscape:window-maximized="1"
     inkscape:current-layer="svg1" />
  <defs
     id="defs1">
    <filter
       style="color-interpolation-filters:sRGB;"
       inkscape:label="Colorize"
       id="filter2"
       x="0"
       y="0"
       width="1"
       height="1">
      <feComposite
         in2="SourceGraphic"
         operator="arithmetic"
         k1="10"
         k2="10"
         result="composite1"
         id="feComposite1" />
      <feColorMatrix
         in="composite1"
         values="1"
         type="saturate"
         result="colormatrix1"
         id="feColorMatrix1" />
      <feFlood
         flood-opacity="1"
         flood-color="rgb(238,238,238)"
         result="flood1"
         id="feFlood1" />
      <feBlend
         in="flood1"
         in2="colormatrix1"
         mode="normal"
         result="blend1"
         id="feBlend1" />
      <feBlend
         in2="blend1"
         mode="normal"
         result="blend2"
         id="feBlend2" />
      <feColorMatrix
         in="blend2"
         values="1"
         type="saturate"
         result="colormatrix2"
         id="feColorMatrix2" />
      <feComposite
         in="colormatrix2"
         in2="SourceGraphic"
         operator="in"
         k2="1"
         result="composite2"
         id="feComposite2" />
    </filter>
  </defs>
  <g
     id="g1"
     style="filter:url(#filter2)">
    <path
       style="fill:#000000"
       d="M 512,832.0074 V 768 h 63.48095 63.48095 l 0.54519,2.25 c 0.29986,1.2375 0.42093,29.925 0.26905,63.75 L 639.5,895.5 575.75,895.7574 512,896.0148 Z M 640.2426,704.2574 640.5,640.5 h 63.5 63.5 v 63.5 63.5 l -63.7574,0.2574 -63.75741,0.25741 z M 767.7574,576.25 767.5,512.5 384.25,512.24871 1,511.99742 V 448.5 385.00258 L 384.25,384.75129 767.5,384.5 767.7574,320.75 768.0148,257 H 831.5 894.9852 l 0.2574,63.75 0.2574,63.75 63.75,0.2574 63.75,0.2574 V 448.5 511.9852 l -63.75,0.2574 -63.75,0.2574 -0.2574,63.75 -0.2574,63.75 H 831.5 768.0148 Z M 640.67406,256.34073 C 640.30333,255.96999 640,227.16334 640,192.32593 V 128.9852 l 63.75,0.2574 63.75,0.2574 v 63.5 63.5 l -63.07594,0.2574 c -34.69176,0.14156 -63.37926,-0.0459 -63.75,-0.41667 z M 512,64.992598 V 0.98519551 L 575.75,1.2425978 639.5,1.5 639.77614,63 c 0.15188,33.825 0.0308,62.5125 -0.26905,63.75 L 638.9619,129 H 575.48095 512 Z"
       id="path1" />
  </g>
</svg>
