<?xml version="1.0" encoding="UTF-8" standalone="no"?>
<!-- Created with Inkscape (http://www.inkscape.org/) -->

<svg
   version="1.1"
   id="svg1"
   width="1024"
   height="897"
   viewBox="0 0 1024 897"
   sodipodi:docname="previous.svg"
   inkscape:version="1.3.2 (091e20ef0f, 2023-11-25, custom)"
   xmlns:inkscape="http://www.inkscape.org/namespaces/inkscape"
   xmlns:sodipodi="http://sodipodi.sourceforge.net/DTD/sodipodi-0.dtd"
   xmlns="http://www.w3.org/2000/svg"
   xmlns:svg="http://www.w3.org/2000/svg">
  <sodipodi:namedview
     id="namedview1"
     pagecolor="#ffffff"
     bordercolor="#000000"
     borderopacity="0.25"
     inkscape:showpageshadow="2"
     inkscape:pageopacity="0.0"
     inkscape:pagecheckerboard="0"
     inkscape:deskcolor="#d1d1d1"
     showgrid="false"
     inkscape:zoom="0.87848384"
     inkscape:cx="512.24619"
     inkscape:cy="448.5"
     inkscape:window-width="1900"
     inkscape:window-height="1010"
     inkscape:window-x="10"
     inkscape:window-y="60"
     inkscape:window-maximized="1"
     inkscape:current-layer="svg1" />
  <defs
     id="defs1">
    <filter
       style="color-interpolation-filters:sRGB;"
       inkscape:label="Colorize"
       id="filter2"
       x="0"
       y="0"
       width="1"
       height="1">
      <feComposite
         in2="SourceGraphic"
         operator="arithmetic"
         k1="10"
         k2="10"
         result="composite1"
         id="feComposite1" />
      <feColorMatrix
         in="composite1"
         values="1"
         type="saturate"
         result="colormatrix1"
         id="feColorMatrix1" />
      <feFlood
         flood-opacity="1"
         flood-color="rgb(238,238,238)"
         result="flood1"
         id="feFlood1" />
      <feBlend
         in="flood1"
         in2="colormatrix1"
         mode="normal"
         result="blend1"
         id="feBlend1" />
      <feBlend
         in2="blend1"
         mode="normal"
         result="blend2"
         id="feBlend2" />
      <feColorMatrix
         in="blend2"
         values="1"
         type="saturate"
         result="colormatrix2"
         id="feColorMatrix2" />
      <feComposite
         in="colormatrix2"
         in2="SourceGraphic"
         operator="in"
         k2="1"
         result="composite2"
         id="feComposite2" />
    </filter>
  </defs>
  <g
     id="g1"
     style="filter:url(#filter2)">
    <path
       style="fill:#000000"
       d="m 384.66667,895.33333 c -0.83293,-0.83292 -0.89118,-123.58469 -0.0597,-125.75154 0.54466,-1.41937 7.11635,-1.58179 64,-1.58179 H 512 v 64 64 h -63.33333 c -34.83334,0 -63.63334,-0.3 -64,-0.66667 z M 256.45937,766.75 c -0.26282,-0.6875 -0.3612,-29.375 -0.21861,-63.75 L 256.5,640.5 h 63.5 63.5 l 0.2574,63.75 0.2574,63.75 h -63.53878 c -49.90951,0 -63.64129,-0.26813 -64.01665,-1.25 z M 128.7574,576.25 128.5,512.5 64.75,512.2426 1,511.9852 V 448.5 385.0148 L 64.75,384.7574 128.5,384.5 128.7574,320.75 129.0148,257 H 192.5 255.9852 l 0.2574,63.75 0.2574,63.75 383.25,0.25129 383.25,0.25129 V 448.5 511.99742 L 639.75,512.24871 256.5,512.5 256.2426,576.25 255.9852,640 H 192.5 129.0148 Z M 256.46224,255.75747 C 256.19784,255.06586 256.09817,226.375 256.24076,192 l 0.25924,-62.5 63.7574,-0.2574 63.75741,-0.25741 -0.25741,63.75741 -0.2574,63.7574 -63.27852,0.25747 c -50.09153,0.20381 -63.3787,-0.005 -63.75924,-1 z M 384.49291,126.75 C 384.19305,125.5125 384.07198,96.825 384.22386,63 L 384.5,1.5 448.25,1.2425978 512,0.98519551 V 64.992598 129 H 448.51905 385.0381 Z"
       id="path1" />
  </g>
</svg>
