<?xml version="1.0" standalone="no"?>
<!DOCTYPE svg PUBLIC "-//W3C//DTD SVG 20010904//EN"
 "http://www.w3.org/TR/2001/REC-SVG-20010904/DTD/svg10.dtd">
<svg version="1.0" xmlns="http://www.w3.org/2000/svg"
 width="96.000000pt" height="96.000000pt" viewBox="0 0 96.000000 96.000000"
 preserveAspectRatio="xMidYMid meet">

<g transform="translate(0.000000,96.000000) scale(0.100000,-0.100000)"
fill="#000000" stroke="none">
<path d="M440 860 c-11 -11 -20 -30 -20 -43 0 -17 -10 -28 -40 -41 -50 -22
-113 -93 -128 -144 -7 -22 -12 -92 -12 -156 l0 -116 240 0 240 0 0 116 c0 64
-5 134 -12 156 -15 51 -78 122 -128 144 -30 13 -40 24 -40 41 0 28 -33 63 -60
63 -11 0 -29 -9 -40 -20z"/>
<path d="M172 268 c-7 -7 -12 -19 -12 -28 0 -33 22 -40 135 -40 l111 0 -4 -34
c-3 -27 2 -40 22 -60 53 -54 143 -14 134 59 l-4 34 114 3 c97 3 117 6 126 21
8 12 8 22 0 35 -10 15 -38 17 -310 20 -225 2 -303 -1 -312 -10z"/>
</g>
</svg>
