<?xml version="1.0" encoding="UTF-8" standalone="no"?>
<!-- Created with Inkscape (http://www.inkscape.org/) -->

<svg
   width="38.099998mm"
   height="42.367199mm"
   viewBox="0 0 38.099998 42.367199"
   version="1.1"
   id="svg1"
   xmlns:inkscape="http://www.inkscape.org/namespaces/inkscape"
   xmlns:sodipodi="http://sodipodi.sourceforge.net/DTD/sodipodi-0.dtd"
   xmlns="http://www.w3.org/2000/svg"
   xmlns:svg="http://www.w3.org/2000/svg">
  <sodipodi:namedview
     id="namedview1"
     pagecolor="#505050"
     bordercolor="#ffffff"
     borderopacity="1"
     inkscape:showpageshadow="0"
     inkscape:pageopacity="0"
     inkscape:pagecheckerboard="1"
     inkscape:deskcolor="#d1d1d1"
     inkscape:document-units="mm" />
  <defs
     id="defs1" />
  <g
     inkscape:label="Layer 1"
     inkscape:groupmode="layer"
     id="layer1"
     transform="translate(-89.612818,-80.520567)">
    <path
       d="M 123.44562,118.62057 V 95.404967 H 93.880023 v 23.215603 z m -6.35,-38.100002 h 4.2672 v 4.2672 h 2.0828 c 1.1684,0 2.1844,0.4572 2.9972,1.27 0.8128,0.8128 1.27,1.8288 1.27,2.9972 v 29.565602 c 0,1.2192 -0.4572,2.2352 -1.27,3.048 -0.8128,0.8128 -1.8288,1.2192 -2.9972,1.2192 H 93.880023 c -1.2192,0 -2.2352,-0.4064 -3.048,-1.2192 -0.8128,-0.8128 -1.2192,-1.8288 -1.2192,-3.048 V 89.054968 c 0,-1.1684 0.4064,-2.1844 1.2192,-2.9972 0.8128,-0.8128 1.8288,-1.27 3.048,-1.27 h 2.0828 v -4.2672 h 4.267197 v 4.2672 h 16.8656 z m 2.1844,23.317202 v 10.6172 h -10.6172 v -10.6172 z"
       id="text1"
       style="font-size:50.8px;line-height:1;font-family:'ComicShannsMono Nerd Font';-inkscape-font-specification:'ComicShannsMono Nerd Font';letter-spacing:0px;fill:#ffffff;stroke-width:0.529167;stroke-linecap:square;stroke-miterlimit:2"
       aria-label="󰃭"
       inkscape:export-filename="text1.svg"
       inkscape:export-xdpi="96"
       inkscape:export-ydpi="96" />
  </g>
</svg>
