<?xml version="1.0" standalone="no"?>
<!DOCTYPE svg PUBLIC "-//W3C//DTD SVG 20010904//EN"
 "http://www.w3.org/TR/2001/REC-SVG-20010904/DTD/svg10.dtd">
<svg version="1.0" xmlns="http://www.w3.org/2000/svg"
 width="87.000000pt" height="113.000000pt" viewBox="0 0 87.000000 113.000000"
 preserveAspectRatio="xMidYMid meet">

<g transform="translate(0.000000,113.000000) scale(0.100000,-0.100000)"
fill="#000000" stroke="none">
<path d="M0 565 l0 -565 284 0 c186 0 295 4 317 11 67 23 243 161 259 204 13
33 -13 66 -104 135 l-86 65 0 151 0 150 88 67 c93 71 119 105 102 136 -27 52
-200 182 -265 200 -25 7 -147 11 -317 11 l-278 0 0 -565z m749 387 l64 -57
-34 -26 c-19 -14 -51 -38 -71 -53 l-38 -28 0 111 c0 61 3 111 8 111 4 0 36
-26 71 -58z m-258 -133 c9 -18 6 -25 -25 -54 -20 -18 -36 -40 -36 -49 0 -9 16
-47 35 -84 l35 -67 -35 -65 c-19 -36 -35 -73 -35 -83 0 -10 16 -33 35 -53 39
-38 41 -46 21 -63 -35 -30 -126 56 -126 119 0 11 14 48 31 82 l31 62 -32 67
c-26 52 -31 74 -26 101 8 44 68 103 108 107 4 1 12 -8 19 -20z m293 -561 l28
-24 -53 -48 c-92 -82 -89 -84 -89 44 l0 111 43 -30 c23 -16 55 -40 71 -53z"/>
</g>
</svg>
