<svg version="1.2" xmlns="http://www.w3.org/2000/svg" viewBox="0 0 58 36" width="58" height="36">
	<title>catEars-svg</title>
	<style>
		.s0 { fill: #000000 } 
	</style>
	<g id="Layer">
		<path id="Layer" fill-rule="evenodd" class="s0" d="m-55 87v-28.4c0-18.6 0.4-29.5 1.1-31.7 2.3-6.7 16.1-24.3 20.4-25.9 3.3-1.3 6.6 1.3 13.5 10.4l6.5 8.6h30.1l6.7-8.8c7.1-9.3 10.5-11.9 13.6-10.2 5.2 2.7 18.2 20 20 26.5 0.7 2.5 1.1 14.7 1.1 31.7v27.8zm95.2-74.9l-5.7-6.4-2.6 3.4c-1.4 1.9-3.8 5.1-5.3 7.1l-2.8 3.8h11.1c6.1 0 11.1-0.3 11.1-0.8 0-0.4-2.6-3.6-5.8-7.1zm-13.3 25.8c-1.8-0.9-2.5-0.6-5.4 2.5-1.8 2-4 3.6-4.9 3.6-0.9 0-4.7-1.6-8.4-3.5l-6.7-3.5-6.5 3.5c-3.6 1.9-7.3 3.5-8.3 3.5-1 0-3.3-1.6-5.3-3.5-3.8-3.9-4.6-4.1-6.3-2.1-3 3.5 5.6 12.6 11.9 12.6 1.1 0 4.8-1.4 8.2-3.1l6.2-3.1 6.7 3.2c5.2 2.6 7.4 3.1 10.1 2.6 4.4-0.8 10.3-6.8 10.7-10.8 0.1-0.4-0.8-1.2-2-1.9zm-56.1-29.3l-2.4-2.8-4.8 5.3c-8.2 9.2-8.4 8.9 4.4 8.9h11.1l-3-4.3c-1.6-2.3-4-5.5-5.3-7.1z"/>
	</g>
</svg>