<?xml version="1.0" standalone="no"?>
<!DOCTYPE svg PUBLIC "-//W3C//DTD SVG 20010904//EN"
 "http://www.w3.org/TR/2001/REC-SVG-20010904/DTD/svg10.dtd">
<svg version="1.0" xmlns="http://www.w3.org/2000/svg"
 width="188.000000pt" height="104.000000pt" viewBox="0 0 188.000000 104.000000"
 preserveAspectRatio="xMidYMid meet">

<g transform="translate(0.000000,104.000000) scale(0.100000,-0.100000)"
fill="#000000" stroke="none">
<path d="M615 890 c-4 -14 10 -48 45 -110 81 -140 104 -202 104 -290 1 -120
-54 -213 -156 -264 -96 -48 -199 -30 -288 50 -81 74 -127 213 -139 427 -5 100
-10 131 -24 144 -67 67 -81 -152 -23 -378 42 -165 101 -251 218 -314 111 -60
263 -41 361 45 126 112 164 263 106 436 -19 59 -106 222 -137 257 -21 23 -59
22 -67 -3z"/>
<path d="M1174 868 c-59 -92 -114 -206 -130 -268 -47 -185 28 -363 187 -447
47 -24 65 -28 144 -28 75 0 98 4 137 24 67 34 139 101 170 157 71 131 127 494
82 538 -19 20 -29 20 -48 0 -12 -11 -16 -36 -16 -93 0 -146 -45 -337 -98 -421
-16 -25 -54 -63 -86 -85 -49 -33 -67 -40 -121 -43 -83 -5 -128 11 -188 67
-131 121 -131 277 0 499 60 103 65 135 21 140 -22 3 -32 -4 -54 -40z"/>
</g>
</svg>
