<svg version="1.2" xmlns="http://www.w3.org/2000/svg" viewBox="0 0 16 16" width="16" height="16">
	<title>catEars-svg</title>
	<style>
		.s0 { fill: #000000 } 
	</style>
	<g id="Layer">
		<path id="Layer" fill-rule="evenodd" class="s0" d="m-42 67v-27.8c0-17 0.4-29.2 1.1-31.7 1.8-6.5 14.8-23.8 20-26.5 3.1-1.7 6.5 0.9 13.6 10.2l6.7 8.8h30.1l6.5-8.6c6.9-9.1 10.2-11.7 13.5-10.4 4.3 1.6 18.1 19.2 20.4 25.9 0.7 2.2 1.1 13.1 1.1 31.7v28.4zm12-67.8c0 0.5 5 0.8 11.1 0.8h11.1l-2.8-3.8c-1.5-2-3.9-5.2-5.3-7.1l-2.6-3.4-5.7 6.4c-3.2 3.5-5.8 6.7-5.8 7.1zm17.1 20.6c0.4 4 6.3 10 10.7 10.8 2.7 0.5 4.9 0 10.1-2.6l6.7-3.2 6.2 3.1c3.4 1.7 7.1 3.1 8.2 3.1 6.3 0 14.9-9.1 11.9-12.6-1.7-2-2.5-1.8-6.3 2.1-2 1.9-4.3 3.5-5.3 3.5-1 0-4.7-1.6-8.3-3.5l-6.5-3.5-6.7 3.5c-3.7 1.9-7.5 3.5-8.4 3.5-0.9 0-3.1-1.6-4.9-3.6-2.9-3.1-3.6-3.4-5.4-2.5-1.2 0.7-2.1 1.5-2 1.9zm52.8-24.1l-3 4.3h11.1c12.8 0 12.6 0.3 4.4-8.9l-4.8-5.3-2.4 2.8c-1.3 1.6-3.7 4.8-5.3 7.1z"/>
	</g>
</svg>