<?xml version="1.0" encoding="UTF-8" standalone="no"?>
<!-- Created with Inkscape (http://www.inkscape.org/) -->

<svg
   width="41.167046mm"
   height="42.265602mm"
   viewBox="0 0 41.167046 42.265602"
   version="1.1"
   id="svg1"
   xmlns:inkscape="http://www.inkscape.org/namespaces/inkscape"
   xmlns:sodipodi="http://sodipodi.sourceforge.net/DTD/sodipodi-0.dtd"
   xmlns="http://www.w3.org/2000/svg"
   xmlns:svg="http://www.w3.org/2000/svg">
  <sodipodi:namedview
     id="namedview1"
     pagecolor="#505050"
     bordercolor="#ffffff"
     borderopacity="1"
     inkscape:showpageshadow="0"
     inkscape:pageopacity="0"
     inkscape:pagecheckerboard="1"
     inkscape:deskcolor="#d1d1d1"
     inkscape:document-units="mm" />
  <defs
     id="defs1" />
  <g
     inkscape:label="Layer 1"
     inkscape:groupmode="layer"
     id="layer1"
     transform="translate(-45.714452,-62.612147)">
    <path
       d="m 66.307497,91.161746 c 2.032,0 3.81,-0.7112 5.2324,-2.1336 1.4732,-1.4224 2.1844,-3.2004 2.1844,-5.2832 0,-2.031999 -0.7112,-3.809999 -2.1844,-5.232399 -1.4224,-1.4224 -3.2004,-2.1844 -5.2324,-2.1844 -2.0828,0 -3.81,0.762 -5.2832,2.1844 -1.4224,1.4224 -2.1336,3.2004 -2.1336,5.232399 0,2.0828 0.7112,3.8608 2.1336,5.2832 1.4732,1.4224 3.2004,2.1336 5.2832,2.1336 z m 15.7988,-5.334 4.4196,3.4544 c 0.2032,0.2032 0.3048,0.4572 0.3556,0.6604 0,0.254 -0.0508,0.508 -0.1524,0.762 l -4.2672,7.3152 c -0.1016,0.2032 -0.254,0.3556 -0.508,0.4572 -0.254,0.1016 -0.508,0.1016 -0.762,-0.0508 l -5.2832,-2.0828 c -1.1176,0.8636 -2.3368,1.5748 -3.556,2.0828 l -0.762,5.537204 c 0,0.3048 -0.1016,0.508 -0.3048,0.6604 -0.2032,0.2032 -0.4572,0.254 -0.7112,0.254 h -8.5344 c -0.3048,0 -0.508,-0.0508 -0.7112,-0.254 -0.2032,-0.1524 -0.3048,-0.3556 -0.3048,-0.6604 l -0.762,-5.537204 c -1.2192,-0.4572 -2.3876,-1.1684 -3.556,-2.0828 l -5.283199,2.0828 c -0.3048,0.1524 -0.5588,0.1524 -0.8128,0.0508 -0.254,-0.1016 -0.4064,-0.254 -0.4572,-0.4572 l -4.2672,-7.3152 c -0.1524,-0.254 -0.2032,-0.508 -0.1524,-0.762 0,-0.2032 0.1524,-0.4572 0.3556,-0.6604 l 4.4196,-3.4544 c -0.0508,-0.762 -0.0508,-1.4732 -0.1016,-2.0828 0,-0.6096 0,-1.27 0.1016,-2.082799 l -4.4196,-3.4544 c -0.2032,-0.2032 -0.3556,-0.4064 -0.3556,-0.6604 -0.0508,-0.2032 0,-0.4572 0.1524,-0.762 l 4.2672,-7.3152 c 0.0508,-0.2032 0.2032,-0.3556 0.4572,-0.4572 0.254,-0.1016 0.508,-0.0508 0.8128,0.0508 l 5.283199,2.0828 c 1.1684,-0.9144 2.3368,-1.5748 3.556,-2.0828 l 0.762,-5.5372 c 0,-0.254 0.1016,-0.4572 0.3048,-0.6604 0.2032,-0.1524 0.4064,-0.254 0.7112,-0.254 h 8.5344 c 0.254,0 0.508,0.1016 0.7112,0.254 0.2032,0.2032 0.3048,0.4064 0.3048,0.6604 l 0.762,5.5372 c 1.1684,0.508 2.3368,1.1684 3.556,2.0828 l 5.2832,-2.0828 c 0.254,-0.1016 0.508,-0.1524 0.762,-0.0508 0.254,0.1016 0.4064,0.254 0.508,0.4572 l 4.2672,7.3152 c 0.1016,0.3048 0.1524,0.5588 0.1524,0.762 -0.0508,0.254 -0.1524,0.4572 -0.3556,0.6604 l -4.4196,3.4544 c 0,0.812799 0.0508,1.473199 0.0508,2.082799 0.0508,0.6096 0,1.3208 -0.0508,2.0828 z"
       id="text1"
       style="font-size:50.8px;line-height:1;font-family:'ComicShannsMono Nerd Font';-inkscape-font-specification:'ComicShannsMono Nerd Font';letter-spacing:0px;fill:#ffffff;stroke-width:0.529167;stroke-linecap:square;stroke-miterlimit:2"
       aria-label="󰒓" />
  </g>
</svg>
