<?xml version="1.0" standalone="no"?>
<!DOCTYPE svg PUBLIC "-//W3C//DTD SVG 20010904//EN"
 "http://www.w3.org/TR/2001/REC-SVG-20010904/DTD/svg10.dtd">
<svg version="1.0" xmlns="http://www.w3.org/2000/svg"
 width="200.000000pt" height="200.000000pt" viewBox="0 0 200.000000 200.000000"
 preserveAspectRatio="xMidYMid meet">

<g transform="translate(0.000000,200.000000) scale(0.100000,-0.100000)"
fill="#000000" stroke="none">
<path d="M258 1936 c-157 -43 -246 -216 -181 -351 8 -16 139 -155 291 -307
l277 -278 -277 -277 c-152 -153 -284 -294 -294 -313 -24 -48 -22 -133 3 -191
25 -57 83 -115 137 -140 51 -23 143 -25 194 -4 24 11 132 111 315 293 l277
277 278 -277 c182 -182 290 -282 314 -293 51 -21 143 -19 194 4 52 24 111 83
135 135 23 51 25 143 4 194 -11 24 -111 132 -293 315 l-277 277 277 278 c182
182 282 290 293 314 21 51 19 143 -4 194 -25 54 -83 112 -140 137 -58 25 -143
27 -191 3 -19 -10 -160 -142 -312 -294 l-278 -277 -277 277 c-153 152 -291
283 -308 291 -46 22 -105 27 -157 13z"/>
</g>
</svg>
